<?xml version="1.0" encoding="UTF-8" standalone="no"?>
<svg
   data-name="Capa 1"
   version="1.1"
   viewBox="0 0 679.09 156.37"
   id="svg58"
   sodipodi:docname="logo-practikalia-neg-fit.svg"
   inkscape:version="1.1.2 (76b9e6a115, 2022-02-25)"
   xmlns:inkscape="http://www.inkscape.org/namespaces/inkscape"
   xmlns:sodipodi="http://sodipodi.sourceforge.net/DTD/sodipodi-0.dtd"
   xmlns="http://www.w3.org/2000/svg"
   xmlns:svg="http://www.w3.org/2000/svg">
  <sodipodi:namedview
     id="namedview60"
     pagecolor="#ffffff"
     bordercolor="#999999"
     borderopacity="1"
     inkscape:pageshadow="0"
     inkscape:pageopacity="0"
     inkscape:pagecheckerboard="0"
     showgrid="false"
     inkscape:zoom="1.0366814"
     inkscape:cx="510.76444"
     inkscape:cy="72.828547"
     inkscape:window-width="1848"
     inkscape:window-height="1016"
     inkscape:window-x="72"
     inkscape:window-y="27"
     inkscape:window-maximized="1"
     inkscape:current-layer="svg58" />
  <defs
     id="defs4">
    <style
       id="style2">.cls-1{fill:#1d1d1b;}.cls-2{fill:#6b6b6a;}.cls-3{fill:#1e1e1c;}.cls-4{fill:#6c6c6b;}.cls-5{fill:#d7eefb;}.cls-6{fill:#e6b3d4;}.cls-7{fill:#8cd2f3;}</style>
  </defs>
  <g
     fill="#fff"
     id="g28"
     style="fill:#ffffff">
    <path
       class="cls-3"
       d="m202.01 80.77v22.2h-12.41v-74h12.41v3.57a15.82 15.82 0 0 1 11.48-4.56q25.41 0 25.43 28 0 13.06-7 20.12t-19.19 7a24.1 24.1 0 0 1-10.72-2.33zm0-38.83v28a12.26 12.26 0 0 0 7.9 2.73q8.6 0 12.34-4.1t3.75-12.93c0-6.3-1.24-10.72-3.72-13.29s-6.59-3.85-12.32-3.85a10.93 10.93 0 0 0-7.95 3.44z"
       id="path6"
       style="fill:#ffffff" />
    <path
       class="cls-3"
       transform="translate(-78.74 -39.13)"
       d="M359.31,79.63a13,13,0,0,0-7.3-2.18,9.9,9.9,0,0,0-7.67,3.92A14.19,14.19,0,0,0,341,91v30.29H328.57V68.06H341v4.86q5.2-5.85,13.85-5.85c4.24,0,7.49.64,9.73,1.93Z"
       id="path8"
       style="fill:#ffffff" />
    <path
       class="cls-3"
       transform="translate(-78.74 -39.13)"
       d="M398.44,115.92a12.06,12.06,0,0,1-5.88,4.56,22.58,22.58,0,0,1-8.77,1.75q-8.6,0-13.5-4.29t-4.92-12.19q0-9.24,6.93-14.45T392,86.09a21.43,21.43,0,0,1,5.16.74q0-9.39-11.87-9.38a26.3,26.3,0,0,0-11.72,2.33l-2.68-9.63a34.7,34.7,0,0,1,15.25-3.08q12.17,0,17.83,5.53t5.66,21V105q0,10.62,4.27,13.35a6.77,6.77,0,0,1-3.42,3.31,14.08,14.08,0,0,1-4.33.61,6.9,6.9,0,0,1-4.82-2A10.2,10.2,0,0,1,398.44,115.92Zm-1.19-19.71a27.24,27.24,0,0,0-4.76-.64q-14.72,0-14.71,9.63,0,7.15,8.3,7.15,11.18,0,11.17-11.17Z"
       id="path10"
       style="fill:#ffffff" />
    <path
       class="cls-3"
       transform="translate(-78.74 -39.13)"
       d="m464.73 72.28-5.31 9.29q-4.37-4.12-11.72-4.07-7.05 0-11.14 4.69t-4.1 13q0 16.74 15.94 16.74a18.07 18.07 0 0 0 12.17-4.57l4.57 9.78a31.24 31.24 0 0 1-9.47 4.27 44.5 44.5 0 0 1-9.56 0.89q-12.32 0-19.44-7.17t-7.12-19.94q0-12.56 7.79-20.3t21.26-7.75a25.8 25.8 0 0 1 16.13 5.14z"
       id="path12"
       style="fill:#ffffff" />
    <path
       class="cls-3"
       transform="translate(-78.74 -39.13)"
       d="M477,78h-6.16V68H477V57.23l12.42-4.56V68.06H504v10H489.37v23.29c0,3.81.6,6.5,1.78,8.07s3.28,2.36,6.26,2.36a15.32,15.32,0,0,0,8.34-2.44v11.43q-4.31,1.49-12.31,1.48t-12.22-4.49c-2.84-3-4.27-7.25-4.27-12.78Z"
       id="path14"
       style="fill:#ffffff" />
    <path
       class="cls-3"
       transform="translate(-78.74 -39.13)"
       d="m518.71 121.24v-43h-6.79v-10.18h19.36v53.18zm6.41-73.74a7.2 7.2 0 1 1-5.12 2.11 7 7 0 0 1 5.12-2.11z"
       id="path16"
       style="fill:#ffffff" />
    <path
       class="cls-3"
       transform="translate(-78.74 -39.13)"
       d="m579.75 121.24-15.65-24.08-6 6.31v17.77h-12.38v-73l12.42-3v43.26l17.73-20.41h15l-18 20.16 21.66 33z"
       id="path18"
       style="fill:#ffffff" />
    <path
       class="cls-3"
       transform="translate(-78.74 -39.13)"
       d="M627.86,115.92a12.06,12.06,0,0,1-5.88,4.56,22.5,22.5,0,0,1-8.76,1.75q-8.6,0-13.52-4.29t-4.91-12.19q0-9.24,6.93-14.45t19.69-5.21a21.43,21.43,0,0,1,5.16.74q0-9.39-11.87-9.38A26.16,26.16,0,0,0,603,79.78l-2.68-9.63a34.7,34.7,0,0,1,15.25-3.08q12.16,0,17.83,5.53t5.65,21V105q0,10.62,4.28,13.35a6.75,6.75,0,0,1-3.43,3.31,14.06,14.06,0,0,1-4.32.61,6.9,6.9,0,0,1-4.82-2A10.2,10.2,0,0,1,627.86,115.92Zm-1.19-19.71a27.35,27.35,0,0,0-4.77-.64q-14.68,0-14.69,9.63,0,7.15,8.28,7.15,11.19,0,11.18-11.17Z"
       id="path20"
       style="fill:#ffffff" />
    <path
       class="cls-3"
       transform="translate(-78.74 -39.13)"
       d="M654.58,48.25l12.41-3V105q0,9.84,5.86,11.72-2.88,5.46-9.83,5.46-8.44,0-8.44-11.71Z"
       id="path22"
       style="fill:#ffffff" />
    <path
       class="cls-3"
       transform="translate(-78.74 -39.13)"
       d="m685.76 121.24v-43h-6.76v-10.18h19.37v53.18zm6.41-73.74a7.2 7.2 0 1 1-5.09 2.11 7 7 0 0 1 5.09-2.11z"
       id="path24"
       style="fill:#ffffff" />
    <path
       class="cls-3"
       transform="translate(-78.74 -39.13)"
       d="M742.37,115.92a12,12,0,0,1-5.87,4.58,22.5,22.5,0,0,1-8.76,1.75q-8.6,0-13.51-4.29t-4.92-12.19q0-9.24,6.93-14.45t19.69-5.21a21.43,21.43,0,0,1,5.16.74q0-9.39-11.86-9.38a26.3,26.3,0,0,0-11.73,2.31l-2.68-9.63a34.7,34.7,0,0,1,15.25-3.08q12.15,0,17.83,5.53t5.66,21V105q0,10.62,4.27,13.35a6.75,6.75,0,0,1-3.43,3.31,14.06,14.06,0,0,1-4.32.61,6.9,6.9,0,0,1-4.82-2A10.16,10.16,0,0,1,742.37,115.92Zm-1.19-19.71a27.35,27.35,0,0,0-4.77-.64q-14.68,0-14.7,9.63,0,7.15,8.3,7.15,11.16,0,11.17-11.17Z"
       id="path26"
       style="fill:#ffffff" />
  </g>
  <g
     fill="#e6e6e6"
     id="g50"
     style="fill:#e6e6e6">
    <path
       class="cls-4"
       transform="translate(-78.74 -39.13)"
       d="m454.81 165.5h-26.07a9.17 9.17 0 0 0 3 6.78 10.84 10.84 0 0 0 7.43 2.43c3.88 0 6.84-1 8.86-3l3.31 6.51q-4.5 3.66-13.43 3.65-8.36 0-13.21-4.89t-4.86-13.65q0-8.62 5.33-14a17.44 17.44 0 0 1 12.83-5.33q7.95 0 12.75 4.74a16.19 16.19 0 0 1 4.78 12 23.68 23.68 0 0 1-0.72 4.76zm-25.81-6.4h18q-0.89-8-8.86-8-7.32-0.01-9.14 8z"
       id="path30"
       style="fill:#e6e6e6" />
    <path
       class="cls-4"
       transform="translate(-78.74 -39.13)"
       d="m483 181.15-9.38-11.9-8.42 11.9h-10.08l14-18.68-12.88-17.83h9.76l7.7 11.15 8.6-11.15h9.7l-14 17.83 15.3 18.68z"
       id="path32"
       style="fill:#e6e6e6" />
    <path
       class="cls-4"
       transform="translate(-78.74 -39.13)"
       d="m503.16 180.23v15.27h-8.53v-50.86h8.53v2.46a10.83 10.83 0 0 1 7.84-3.1q17.44 0 17.45 19.23 0 9-4.82 13.8t-13.16 4.84a16.47 16.47 0 0 1-7.31-1.64zm0-26.66v19.19a8.31 8.31 0 0 0 5.41 1.88c3.94 0 6.76-0.94 8.48-2.81s2.57-4.84 2.57-8.89q0-6.47-2.56-9.11c-1.71-1.76-4.52-2.64-8.45-2.64a7.46 7.46 0 0 0-5.45 2.38z"
       id="path34"
       style="fill:#e6e6e6" />
    <path
       class="cls-4"
       transform="translate(-78.74 -39.13)"
       d="m565.78 165.5h-26.08a9.25 9.25 0 0 0 3 6.78 10.84 10.84 0 0 0 7.43 2.43c3.88 0 6.84-1 8.86-3l3.31 6.51q-4.5 3.66-13.43 3.65-8.36 0-13.21-4.89t-4.86-13.65q0-8.62 5.34-14a17.4 17.4 0 0 1 12.8-5.35q7.93 0 12.75 4.74a16.22 16.22 0 0 1 4.8 12.06 24.36 24.36 0 0 1-0.71 4.72zm-25.78-6.4h17.93q-0.88-8-8.86-8-7.29-0.01-9.07 8z"
       id="path36"
       style="fill:#e6e6e6" />
    <path
       class="cls-4"
       transform="translate(-78.74 -39.13)"
       d="M591.62,152.58a9.06,9.06,0,0,0-5-1.5,6.79,6.79,0,0,0-5.27,2.7,9.75,9.75,0,0,0-2.3,6.58v20.79H570.5V144.64H579V148a12.09,12.09,0,0,1,9.51-4,13.65,13.65,0,0,1,6.68,1.33Z"
       id="path38"
       style="fill:#e6e6e6" />
    <path
       class="cls-4"
       d="m522.09 142.02v-29.52h-4.67v-7h13.34v36.51zm4.4-50.66a5 5 0 1 1-3.49 1.45 4.78 4.78 0 0 1 3.49-1.44z"
       id="path40"
       style="fill:#e6e6e6" />
    <path
       class="cls-4"
       transform="translate(-78.74 -39.13)"
       d="m648.17 165.5h-26.07a9.21 9.21 0 0 0 3 6.78 10.84 10.84 0 0 0 7.43 2.43c3.88 0 6.84-1 8.86-3l3.31 6.51q-4.5 3.66-13.43 3.65-8.35 0-13.21-4.89t-4.86-13.65q0-8.62 5.34-14a17.4 17.4 0 0 1 12.8-5.35q7.93 0 12.74 4.74a16.21 16.21 0 0 1 4.81 12.06 23.52 23.52 0 0 1-0.72 4.72zm-25.77-6.4h17.93q-0.89-8-8.86-8-7.29 0-9.07 8z"
       id="path42"
       style="fill:#e6e6e6" />
    <path
       class="cls-4"
       transform="translate(-78.74 -39.13)"
       d="M676.4,181.15v-21.1c0-3.11-.6-5.39-1.79-6.82s-3.14-2.15-5.85-2.15a9,9,0,0,0-4,1.06,9.32,9.32,0,0,0-3.32,2.62v26.39h-8.53V144.64h6.14l1.57,3.41q3.46-4.1,10.26-4.09,6.51,0,10.27,3.9c2.52,2.61,3.77,6.23,3.77,10.89v22.4Z"
       id="path44"
       style="fill:#e6e6e6" />
    <path
       class="cls-4"
       transform="translate(-78.74 -39.13)"
       d="M720,147.5l-3.65,6.37a11.3,11.3,0,0,0-8-2.83,9.65,9.65,0,0,0-7.66,3.23c-1.87,2.14-2.8,5.11-2.81,8.91q0,11.49,10.94,11.49a12.34,12.34,0,0,0,8.35-3.14l3.14,6.72a21.6,21.6,0,0,1-6.49,2.93,31.42,31.42,0,0,1-6.56.61q-8.46,0-13.35-4.93T689,163.18q0-8.62,5.35-13.94t14.59-5.32A17.72,17.72,0,0,1,720,147.5Z"
       id="path46"
       style="fill:#e6e6e6" />
    <path
       class="cls-4"
       transform="translate(-78.74 -39.13)"
       d="M756.85,165.5H730.78a9.21,9.21,0,0,0,3,6.78,10.84,10.84,0,0,0,7.43,2.43c3.88,0,6.84-1,8.86-3l3.31,6.51q-4.5,3.66-13.43,3.65-8.36,0-13.21-4.89t-4.86-13.65q0-8.62,5.34-14A17.4,17.4,0,0,1,740,144q7.93,0,12.74,4.74a16.21,16.21,0,0,1,4.81,12.06A23.52,23.52,0,0,1,756.85,165.5Zm-25.77-6.4H749q-.88-8-8.86-8-7.29,0-9.07,8Z"
       id="path48"
       style="fill:#e6e6e6" />
  </g>
  <path
     class="cls-6"
     transform="translate(-78.74 -39.13)"
     d="m228.52 72c-5.14-18.59-36.52-32.87-74.52-32.87-41.56 0-75.25 17.08-75.25 38.16 0 13.56 13.94 25.46 34.94 32.22 11.53 13.21-3 26.21-3 26.21 15.76-1.83 22.17-17 23.74-21.58a145 145 0 0 0 19.08 1.36h0.49c41.53 0 75.22-17.13 75.22-38.21a19.84 19.84 0 0 0-0.7-5.29z"
     id="path52" />
  <path
     class="cls-7"
     transform="translate(-78.74 -39.13)"
     d="m246.28 99.56c0-11.09-6.92-21-17.76-27.58a60.53 60.53 0 0 0-31.19-8.21c-27 0-49 16-49 35.79a28 28 0 0 0 5.17 15.94c8 11.77 24.62 19.87 43.83 19.87a66 66 0 0 0 13.3-1.35c-0.31 4.57 0.65 15.64 15.37 23.34 0 0-13.36-20.7 6.47-32.77l-0.26 0.09c8.69-6.47 14.07-15.34 14.07-25.12z"
     id="path54" />
  <path
     class="cls-5"
     d="m149.77 32.843a60.53 60.53 0 0 0-31.19-8.21c-27 0-49 16-49 35.79a28 28 0 0 0 5.17 15.94h0.5c41.53 0 75.22-17.13 75.22-38.21a19.84 19.84 0 0 0-0.7-5.31z"
     id="path56" />
</svg>
